<svg width="24" height="24" viewBox="0 0 24 24" fill="none" xmlns="http://www.w3.org/2000/svg">
<path fill-rule="evenodd" clip-rule="evenodd" d="M5 3C3.34315 3 2 4.34315 2 6V9C2 10.1947 2.69864 11.2262 3.70922 11.7081C2.69864 12.19 2 13.2215 2 14.4163V17.4163C2 19.0731 3.34315 20.4163 5 20.4163H19C20.6569 20.4163 22 19.0731 22 17.4163V14.4163C22 13.2215 21.3014 12.19 20.2908 11.7081C21.3014 11.2262 22 10.1947 22 9V6C22 4.34315 20.6569 3 19 3H5ZM4 9C4 9.55228 4.44772 10 5 10H19C19.5523 10 20 9.55228 20 9V6C20 5.44772 19.5523 5 19 5H5C4.44772 5 4 5.44772 4 6V9ZM5 13.4163C4.44772 13.4163 4 13.8641 4 14.4163V17.4163C4 17.9686 4.44772 18.4163 5 18.4163H19C19.5523 18.4163 20 17.9686 20 17.4163V14.4163C20 13.8641 19.5523 13.4163 19 13.4163H5ZM6 7.5C6 6.94772 6.44772 6.5 7 6.5H7.01C7.56228 6.5 8.01 6.94772 8.01 7.5C8.01 8.05228 7.56228 8.5 7.01 8.5H7C6.44772 8.5 6 8.05228 6 7.5ZM7 14.9163C6.44772 14.9163 6 15.3641 6 15.9163C6 16.4686 6.44772 16.9163 7 16.9163H7.01C7.56228 16.9163 8.01 16.4686 8.01 15.9163C8.01 15.3641 7.56228 14.9163 7.01 14.9163H7Z" fill="#FF0000"/>
</svg>
